<?xml version="1.0" encoding="UTF-8"?>
<svg version="1.1" xmlns="http://www.w3.org/2000/svg" width="512" height="512">
<path d="M0 0 C2.85987176 1.12388978 4.03895408 3.33592789 5.89355469 5.74414062 C18.23425242 16.5980073 32.40120767 22.73785295 48.89355469 21.74414062 C52.32452934 21.18982441 55.65671603 20.36921351 59.01855469 19.49414062 C59.92436279 19.27032715 60.8301709 19.04651367 61.76342773 18.81591797 C66.03296995 17.75576415 70.2862218 16.64404854 74.53027344 15.48632812 C75.23974121 15.2971582 75.94920898 15.10798828 76.68017578 14.91308594 C78.57411111 14.40456727 80.4625983 13.87587757 82.35058594 13.34570312 C87.62062399 12.45090063 92.13251134 12.57011173 96.70605469 15.61914062 C102.91382119 24.48737848 102.34073011 35.45883392 102.29199219 45.85742188 C102.2940195 47.40000037 102.29693636 48.94257793 102.3006897 50.4851532 C102.30508619 53.70333059 102.29877185 56.92125641 102.28466797 60.1394043 C102.26762104 64.22396928 102.27740561 68.30794067 102.29538536 72.39248371 C102.30633343 75.5747864 102.30272626 78.75695323 102.29500198 81.93926048 C102.29302798 83.44325013 102.29535836 84.94725292 102.30244064 86.45122719 C102.38438563 108.74488075 96.57151339 126.47279341 81.26855469 142.93164062 C66.40666311 157.29128702 48.10543139 161.36190459 28.07714844 161.08398438 C10.65355544 160.44397738 -4.80144878 151.81124987 -16.71777344 139.31689453 C-35.02837272 118.57904633 -34.45078054 93.12997411 -34.3671875 67.06005859 C-34.35570707 63.44484982 -34.36243188 59.82993537 -34.37433243 56.21473694 C-34.38158731 53.39900523 -34.379248 50.58334251 -34.37407684 47.76760864 C-34.37211932 45.79355676 -34.37812661 43.81950206 -34.38433838 41.84545898 C-34.32247615 29.98135155 -32.60349801 22.77735786 -24.49707031 14.00195312 C-20.11742822 9.79672156 -15.08382213 6.76887866 -9.85644531 3.74414062 C-9.1585791 3.33365479 -8.46071289 2.92316895 -7.74169922 2.50024414 C-2.68046273 -0.3255824 -2.68046273 -0.3255824 0 0 Z " fill="#7D56C2" transform="translate(222.1064453125,106.255859375)"/>
<path d="M0 0 C8.92997466 0.22352878 17.58203909 0.83017069 26.3125 2.8125 C27.02269287 2.96557617 27.73288574 3.11865234 28.46459961 3.27636719 C32.76586825 4.32457115 35.32697517 5.44998276 38 9 C39.29877636 11.37539361 40.43326007 13.65085256 41.5 16.125 C41.80043213 16.81859619 42.10086426 17.51219238 42.41040039 18.22680664 C44.60033811 23.52313945 46.1783723 28.85012083 47.4375 34.4375 C47.60121094 35.15760254 47.76492188 35.87770508 47.93359375 36.61962891 C49.00187901 41.81201987 49.13048017 46.70250523 49 52 C48.154375 52.08636719 47.30875 52.17273438 46.4375 52.26171875 C38.30920052 53.26851948 31.75594511 54.27136141 26.4765625 60.91796875 C22.11002352 68.25022062 21.78605774 76.54545513 21.16308594 84.86230469 C21.02253445 86.70462323 20.84665144 88.54418432 20.6640625 90.3828125 C20.36060823 93.58958603 20.15781964 96.78263144 20 100 C19.96068359 100.76586426 19.92136719 101.53172852 19.88085938 102.32080078 C19.76412861 104.88046905 19.68962607 107.43852384 19.625 110 C19.58681152 110.8139624 19.54862305 111.6279248 19.50927734 112.46655273 C19.44828681 116.84012019 19.56864544 118.46045554 22.3984375 122 C26.69089176 125.29990478 29.87831332 125.12140063 35.125 125.0625 C35.87910156 125.05798828 36.63320313 125.05347656 37.41015625 125.04882812 C39.27347127 125.03703499 41.13674555 125.01909942 43 125 C43.99 123.02 43.99 123.02 45 121 C44.34 120.01 43.68 119.02 43 118 C40.390379 117.61588725 37.9941926 117.39706803 35.375 117.3125 C34.66859375 117.27833984 33.9621875 117.24417969 33.234375 117.20898438 C31.49014312 117.12648692 29.74509605 117.06156665 28 117 C27.72334488 106.96356697 28.13629496 97.01501677 28.8125 87 C28.88259277 85.84330811 28.95268555 84.68661621 29.02490234 83.49487305 C29.55806606 76.15030337 30.17170823 69.4469806 35 63.5625 C40.21454761 59.48863468 47.52904428 60.73483894 53.8125 60.6875 C55.08416016 60.65849609 56.35582031 60.62949219 57.66601562 60.59960938 C68.15154928 60.52820448 68.15154928 60.52820448 71.69921875 62.64453125 C76.27194685 67.32594898 77.47897509 72.27551269 77.94921875 78.63671875 C78.01156204 79.35680618 78.07390533 80.07689362 78.13813782 80.81880188 C78.26722529 82.33697272 78.39043313 83.85565382 78.50805664 85.37475586 C78.68571787 87.66453118 78.88121616 89.95221285 79.08007812 92.24023438 C80.51387626 109.22712834 80.51387626 109.22712834 80 116 C77.60043729 118.39956271 71.4714488 117.46575982 68.22265625 117.62109375 C64.91423026 117.67263675 64.91423026 117.67263675 63 120 C62.83312552 122.58354218 62.83312552 122.58354218 63 125 C65.89640118 125.08120751 68.79050912 125.14059421 71.6875 125.1875 C72.50412109 125.21263672 73.32074219 125.23777344 74.16210938 125.26367188 C78.91363549 125.32138272 82.21703481 125.21877535 86 122 C91.25545689 113.72268416 87.72896189 99.06994842 86.93798828 89.56005859 C86.74920031 87.24017319 86.5835561 84.91929835 86.41796875 82.59765625 C85.67203123 73.04223562 84.90275881 64.40296046 77.5625 57.5625 C73.16025773 53.97737927 68.79474184 52.78034278 63.1875 52.375 C62.21167969 52.30023438 61.23585938 52.22546875 60.23046875 52.1484375 C59.49441406 52.09945312 58.75835937 52.05046875 58 52 C57.85304688 50.70449219 57.70609375 49.40898437 57.5546875 48.07421875 C56.00732677 35.48925637 53.21960254 23.94871271 49 12 C69.66324027 19.72561219 86.05309903 39.28240428 95.76171875 58.484375 C110.63987527 91.61356987 105 122.83157897 105 161 C57.81 161 10.62 161 -38 161 C-35.75008535 154.25025606 -35.75008535 154.25025606 -34.33032227 151.28173828 C-34.01073044 150.60904907 -33.69113861 149.93635986 -33.36186218 149.24328613 C-33.01686172 148.52620483 -32.67186127 147.80912354 -32.31640625 147.0703125 C-31.94864578 146.29860718 -31.58088531 145.52690186 -31.20198059 144.73181152 C-29.99202969 142.19466159 -28.77726038 139.65985023 -27.5625 137.125 C-26.71854989 135.35743233 -25.8749681 133.58968875 -25.03173828 131.82177734 C-23.26523153 128.11879712 -21.49710878 124.41659456 -19.72802734 120.71484375 C-15.68343963 112.24727617 -11.6627318 103.76836664 -7.63986206 95.29046631 C-5.62267962 91.03962189 -3.60458253 86.78921253 -1.5859375 82.5390625 C-1.23578079 81.8013562 -0.88562408 81.0636499 -0.52485657 80.30358887 C1.88574781 75.22850438 1.88574781 75.22850438 3 73 C3.41519464 69.34559305 3.45577745 67.62183246 1.24902344 64.61108398 C0.46043945 63.83063721 -0.32814453 63.05019043 -1.140625 62.24609375 C-14.07755337 47.9222142 -14.07755337 47.9222142 -13.96990967 39.70220947 C-12.4119835 27.59648255 -6.9475339 16.04221251 -2 5 C-1.32322872 3.3374108 -0.6516066 1.67261205 0 0 Z " fill="#7D56C2" transform="translate(354,314)"/>
<path d="M0 0 C1.88940719 5.27683618 3.75838674 10.56030939 5.60913086 15.85083008 C6.24098875 17.64802486 6.87829939 19.44331251 7.52124023 21.23657227 C8.4466902 23.82080705 9.35204286 26.41136028 10.25390625 29.00390625 C10.68818687 30.19651817 10.68818687 30.19651817 11.13124084 31.41322327 C12.80920946 36.31322394 13.41270684 39.85521118 12 45 C10.37011719 47.85498047 10.37011719 47.85498047 8.296875 50.6171875 C7.5646875 51.63683594 6.8325 52.65648437 6.078125 53.70703125 C4.52425684 55.82143909 2.9564489 57.9256721 1.375 60.01953125 C0.64796875 61.04175781 -0.0790625 62.06398438 -0.828125 63.1171875 C-1.8476123 64.48786377 -1.8476123 64.48786377 -2.88769531 65.88623047 C-5.00727111 71.81974006 -1.42678112 77.17753211 1.09375 82.60400391 C1.8900849 84.23101626 2.69243732 85.85509372 3.5 87.4765625 C3.93243011 88.35663971 4.36486023 89.23671692 4.81039429 90.14346313 C6.20191349 92.97314412 7.60101322 95.79900479 9 98.625 C10.43763777 101.54545165 11.87318563 104.46692466 13.3086853 107.38842773 C14.24961636 109.30297667 15.19119975 111.21720514 16.13345337 113.13110352 C20.8085441 122.62881039 25.40016666 132.16469492 29.92724609 141.73388672 C31.01622933 144.03428327 32.11155652 146.33159526 33.20703125 148.62890625 C33.86764523 150.02322073 34.5278331 151.4177372 35.1875 152.8125 C35.73792969 153.97394531 36.28835937 155.13539063 36.85546875 156.33203125 C38 159 38 159 38 161 C-9.19 161 -56.38 161 -105 161 C-105 61.1618538 -105 61.1618538 -74.3125 28.9375 C-68.73317825 23.4618189 -56.97338541 12 -49 12 C-49.61875 13.7634375 -49.61875 13.7634375 -50.25 15.5625 C-51.68620869 19.87796514 -52.93845433 24.23532532 -54.125 28.625 C-54.45757812 29.85476563 -54.79015625 31.08453125 -55.1328125 32.3515625 C-57.03373999 40.34915834 -57.29013075 48.25302734 -57.5625 56.4375 C-57.62727539 58.25024414 -57.62727539 58.25024414 -57.69335938 60.09960938 C-57.79889404 63.06630606 -57.90100714 66.03307902 -58 69 C-58.81984375 69.32323242 -59.6396875 69.64646484 -60.484375 69.97949219 C-62.10085937 70.63159668 -62.10085937 70.63159668 -63.75 71.296875 C-65.35101563 71.93641113 -65.35101563 71.93641113 -66.984375 72.58886719 C-73.73990882 75.75005448 -77.58832576 80.83130259 -80.28125 87.6796875 C-82.71330556 95.53099731 -82.55354406 102.9515178 -78.80859375 110.35546875 C-74.84719349 116.79949043 -69.98787907 121.00606047 -63.25 124.375 C-54.52281233 126.05330532 -46.62913731 125.81615931 -39 121 C-32.01561834 116.08229812 -27.76125421 110.41488124 -26 102 C-24.97887812 93.54645002 -27.29394643 85.82230067 -32.1875 78.91015625 C-35.06686904 75.60614546 -38.36689152 73.91291734 -42.3125 72.125 C-43.28026367 71.66480469 -43.28026367 71.66480469 -44.26757812 71.1953125 C-45.83888701 70.4503957 -47.41861711 69.72328473 -49 69 C-49.61187569 47.70907945 -49.66424915 24.69371704 -36.28125 6.6875 C-33.1119117 4.34305797 -29.78787267 3.60686623 -26 2.8125 C-25.24686523 2.64524414 -24.49373047 2.47798828 -23.71777344 2.30566406 C-15.83184375 0.62516607 -8.05301272 -0.0167841 0 0 Z " fill="#7D56C2" transform="translate(158,314)"/>
<path d="M0 0 C1.11181641 0.93972656 1.11181641 0.93972656 2.24609375 1.8984375 C3.05949219 2.56617187 3.87289062 3.23390625 4.7109375 3.921875 C23.15189316 19.66346119 33.83272572 42.32799674 35.9765625 66.28125 C36.569189 74.80378354 36.39628143 83.36277088 36.24609375 91.8984375 C33.14748433 90.69132705 30.14705021 89.40667776 27.18359375 87.8984375 C26.53261719 87.5684375 25.88164062 87.2384375 25.2109375 86.8984375 C24.56253906 86.5684375 23.91414062 86.2384375 23.24609375 85.8984375 C22.54613281 85.68574219 21.84617187 85.47304687 21.125 85.25390625 C18.08202856 83.0586649 17.92715022 79.70765799 17.24609375 76.2109375 C15.86463425 69.31003563 14.05728598 63.70962973 8.93359375 58.5859375 C1.23718699 53.75331 -6.46129901 54.71115752 -14.98730469 56.6237793 C-18.36027567 57.5067391 -21.71453765 58.43855794 -25.06640625 59.3984375 C-27.33261556 60.03640937 -29.59952173 60.67191211 -31.8671875 61.3046875 C-33.34892456 61.72717773 -33.34892456 61.72717773 -34.8605957 62.15820312 C-48.00710726 65.52165119 -60.13971041 63.68800178 -71.9375 56.921875 C-76.56987949 53.5937577 -80.4203678 49.5525335 -84.3203125 45.41015625 C-86.94739768 42.69873447 -87.71637948 42.0106441 -91.390625 41.61328125 C-95.71466439 41.97989551 -98.75967399 43.46904798 -102.56640625 45.4609375 C-103.27273193 45.82372803 -103.97905762 46.18651855 -104.70678711 46.56030273 C-110.21866174 49.46345554 -115.1147406 52.72126345 -119.75390625 56.8984375 C-120.37523437 57.41664062 -120.9965625 57.93484375 -121.63671875 58.46875 C-128.22109398 64.3690343 -131.98069265 72.38408029 -134.00390625 80.8984375 C-134.87297796 83.79883346 -135.34623145 84.65383262 -137.98046875 86.234375 C-140.62890625 87.2734375 -140.62890625 87.2734375 -143.18359375 88.046875 C-146.00260537 88.98083326 -148.23548868 90.34091897 -150.75390625 91.8984375 C-151.58457718 56.78022664 -151.58457718 56.78022664 -146.75390625 43.8984375 C-146.38007813 42.8465625 -146.00625 41.7946875 -145.62109375 40.7109375 C-136.20503668 16.26660393 -118.14179239 -1.79246823 -94.46875 -12.6015625 C-91.26135156 -13.91102286 -88.05386453 -15.04812963 -84.75390625 -16.1015625 C-83.76003906 -16.42125 -82.76617187 -16.7409375 -81.7421875 -17.0703125 C-54.08907134 -24.41726587 -22.1609777 -18.09220639 0 0 Z " fill="#7D56C2" transform="translate(313.75390625,56.1015625)"/>
<path d="M0 0 C3.87990731 1.24946168 7.66771486 2.64862315 11.45361328 4.15771484 C34.24077356 13.11442047 56.26416451 13.04724655 78.6953125 3.40234375 C81.76352147 2.10034964 84.83394992 1.0340438 88 0 C85.90957459 18.75123753 83.55752457 37.46353962 81.09402609 56.16880178 C80.70041265 59.1594646 80.30812094 62.15030025 79.91581166 65.14113438 C78.99174824 72.18579993 78.06567397 79.23019894 77.13818359 86.27441406 C76.18400636 93.52154693 75.23306057 100.76909875 74.2836684 108.01685989 C73.46237226 114.2859841 72.63926884 120.55486914 71.81467068 126.82355988 C71.32464064 130.54888891 70.83525491 134.27429951 70.34756088 137.99993515 C69.80711215 142.12775003 69.262881 146.25505753 68.71826172 150.38232422 C68.55825684 151.60814713 68.39825195 152.83397003 68.23339844 154.09693909 C68.0106575 155.77793449 68.0106575 155.77793449 67.78341675 157.4928894 C67.59153684 158.95213239 67.59153684 158.95213239 67.39578056 160.44085503 C67 163 67 163 66 167 C51.48 167 36.96 167 22 167 C17.27861954 133.58543512 12.81695798 100.14047382 8.44172645 66.67932093 C7.7050308 61.04636289 6.96600917 55.41371176 6.22645533 49.78112835 C5.41686278 43.614777 4.60871877 37.4482367 3.80128098 31.28160286 C3.4611263 28.68470715 3.1206165 26.08785792 2.77974319 23.49105644 C2.30974196 19.90883395 1.841398 16.3263988 1.37353516 12.74389648 C1.16325684 11.14482956 1.16325684 11.14482956 0.94873047 9.51345825 C0.82277496 8.54632401 0.69681946 7.57918976 0.56704712 6.58274841 C0.45685053 5.74077125 0.34665394 4.89879408 0.23311806 4.03130245 C0 2 0 2 0 0 Z " fill="#7D56C2" transform="translate(212,309)"/>
<path d="M0 0 C4.94865109 0.97491845 9.89653809 1.95359553 14.84375 2.93579102 C16.5274635 3.26951316 18.21138249 3.60220027 19.89550781 3.93383789 C22.31369696 4.41021261 24.73112699 4.89028299 27.1484375 5.37109375 C27.9036972 5.51904892 28.65895691 5.66700409 29.43710327 5.81944275 C34.77225659 6.88612829 34.77225659 6.88612829 37 8 C35.75104142 14.26157499 34.02941007 20.18823685 31.890625 26.19921875 C31.29478507 27.91964922 30.69975644 29.64036085 30.10546875 31.36132812 C29.17637098 34.03698183 28.24190168 36.71028815 27.29345703 39.37915039 C26.37188601 41.98043565 25.4733582 44.58877196 24.578125 47.19921875 C24.28971741 47.99309494 24.00130981 48.78697113 23.7041626 49.60490417 C22.47493533 53.24133161 21.88325836 55.39240971 22.61938477 59.22363281 C24.05217358 62.10491917 25.61904718 64.62020231 27.51171875 67.22265625 C28.18654297 68.17333984 28.86136719 69.12402344 29.55664062 70.10351562 C30.98307407 72.08431 32.41542613 74.06085495 33.85351562 76.03320312 C34.52447266 76.98259766 35.19542969 77.93199219 35.88671875 78.91015625 C36.50764404 79.76746338 37.12856934 80.62477051 37.76831055 81.50805664 C39 84 39 84 38.89526367 86.38696289 C37.76527926 89.68508755 36.33884748 92.78282573 34.7890625 95.8984375 C34.46532654 96.56108109 34.14159058 97.22372467 33.80804443 97.90644836 C33.1134049 99.32660559 32.41613856 100.74548045 31.7164917 102.16317749 C30.61124233 104.40287885 29.51292245 106.64585627 28.41650391 108.88989258 C26.95089055 111.88900428 25.48315948 114.88706214 24.01367188 117.88427734 C21.43991641 123.13885241 18.89857499 128.40865225 16.375 133.6875 C15.74706543 134.99944336 15.74706543 134.99944336 15.10644531 136.33789062 C12.45724511 141.89221376 9.84620005 147.46373961 7.25 153.04296875 C6.92850983 153.73357895 6.60701965 154.42418915 6.27578735 155.13572693 C4.68193094 158.56102534 3.09122069 161.98773518 1.50537109 165.41674805 C0.9280983 166.66066235 0.35078892 167.90455969 -0.2265625 169.1484375 C-0.73783691 170.25364746 -1.24911133 171.35885742 -1.77587891 172.49755859 C-3 175 -3 175 -4 176 C-5.41570123 176.08651611 -6.835595 176.10704904 -8.25390625 176.09765625 C-9.0229126 176.09515869 -9.79191895 176.09266113 -10.58422852 176.09008789 C-11.56705811 176.08098389 -12.5498877 176.07187988 -13.5625 176.0625 C-15.19746147 176.05113933 -16.83242572 176.04017605 -18.46739197 176.02952576 C-19.31643569 176.02397391 -20.16547941 176.01842207 -21.04025173 176.01270199 C-21.68696866 176.00851033 -22.33368559 176.00431868 -23 176 C-21.36624205 158.79493209 -19.05509773 141.67560831 -16.79156184 124.54495096 C-16.23791956 120.35153619 -15.68684628 116.15778367 -15.13539124 111.96408081 C-14.21168006 104.94246201 -13.28602415 97.92110176 -12.35913086 90.89990234 C-11.28869376 82.79120239 -10.22122338 74.68211606 -9.15533537 66.57281697 C-8.12534956 58.7370761 -7.09345983 50.90158716 -6.06064034 43.06621933 C-5.62267336 39.74345414 -5.18534092 36.42060636 -4.74851799 33.09769058 C-4.23541232 29.19524924 -3.72062926 25.29303273 -3.20454979 21.39098358 C-3.01571561 19.96119371 -2.82744981 18.53132864 -2.63979721 17.10138321 C-2.38344604 15.14869281 -2.1248158 13.19630202 -1.86607361 11.243927 C-1.72210616 10.15231325 -1.57813871 9.0606995 -1.42980862 7.93600655 C-1.03895493 5.26609965 -0.55782142 2.63948064 0 0 Z " fill="#7D56C2" transform="translate(310,299)"/>
<path d="M0 0 C3.18632719 22.00960383 6.24973468 44.03117768 9.14169335 66.08134723 C9.53132242 69.05031625 9.9221982 72.01912069 10.31303567 74.98793083 C11.23299726 81.97617916 12.15100022 88.96468266 13.06762695 95.95336914 C14.00958758 103.13494741 14.95495152 110.31607222 15.9018777 117.4969973 C16.7233763 123.72761704 17.54288106 129.95849677 18.36075848 136.1895929 C18.84580933 139.88488604 19.33159294 143.58007887 19.8192997 147.27502251 C20.35811921 151.35801784 20.89277185 155.44154813 21.42700195 159.52514648 C21.58746002 160.73682999 21.74791809 161.94851349 21.91323853 163.19691467 C22.12958199 164.85840042 22.12958199 164.85840042 22.35029602 166.55345154 C22.47654012 167.51459083 22.60278421 168.47573011 22.73285389 169.46599483 C23 172 23 172 23 176 C16.73 176 10.46 176 4 176 C-6.94348646 154.33636354 -17.48442037 132.47345131 -27.61645508 110.41894531 C-30.88582086 103.3201047 -34.28959075 96.33478099 -38.0234375 89.46875 C-39.175712 86.55580005 -39.04358327 85.89054463 -38 83 C-36.84748577 81.16382969 -35.62729938 79.36953465 -34.3671875 77.60546875 C-33.64402344 76.56712891 -32.92085937 75.52878906 -32.17578125 74.45898438 C-30.64483729 72.28213283 -29.10317346 70.11278019 -27.55078125 67.95117188 C-26.83019531 66.90896484 -26.10960937 65.86675781 -25.3671875 64.79296875 C-24.36341064 63.37794067 -24.36341064 63.37794067 -23.33935547 61.93432617 C-20.41924393 55.53680145 -23.9998751 48.48690832 -26.16015625 42.19921875 C-26.46948593 41.28163284 -26.77881561 40.36404694 -27.09751892 39.4186554 C-28.08012107 36.50629576 -29.07075668 33.59675821 -30.0625 30.6875 C-31.05672673 27.76004128 -32.04919098 24.83201441 -33.03819275 21.90278625 C-33.65254185 20.08427639 -34.27009536 18.26684537 -34.89112854 16.4506073 C-35.30672279 15.22341728 -35.30672279 15.22341728 -35.73071289 13.97143555 C-35.97640518 13.25086472 -36.22209747 12.53029388 -36.47523499 11.78788757 C-37 10 -37 10 -37 8 C-28.24605879 5.73001249 -19.47472658 3.61595211 -10.625 1.75 C-9.79895264 1.57500977 -8.97290527 1.40001953 -8.12182617 1.21972656 C-2.25940801 0 -2.25940801 0 0 0 Z " fill="#7D56C2" transform="translate(202,299)"/>
<path d="M0 0 C7.92 3.96 7.92 3.96 16 8 C35.25270868 15.08354376 56.98551307 15.94970484 75.953125 7.24609375 C79.36059158 5.60296248 82.68340096 3.81964758 86 2 C87.32 1.34 88.64 0.68 90 0 C90 11.88 90 23.76 90 36 C73.06602437 45.03145367 73.06602437 45.03145367 66.5 46.9375 C65.86320312 47.13150391 65.22640625 47.32550781 64.5703125 47.52539062 C44.72441048 53.37790663 24.9548198 49.29988677 7 40 C3.535 38.02 3.535 38.02 0 36 C0 24.12 0 12.24 0 0 Z " fill="#7D56C2" transform="translate(211,262)"/>
<path d="M0 0 C5.42214169 5.15103461 9.18106964 9.48404966 9.8125 17.1875 C9.63322956 22.47597808 8.51004439 27.1316912 4.91796875 31.140625 C-0.67634322 36.16209892 -5.42046811 37.86647695 -12.9375 37.6875 C-18.40375911 37.02088304 -22.66602167 34.59587877 -26.375 30.5625 C-30.29230544 24.68654184 -30.93992511 19.59813878 -30.03515625 12.734375 C-28.63588845 6.56534032 -24.34650895 2.98410241 -19.5 -0.625 C-13.28539389 -2.69653537 -5.9411618 -2.75839655 0 0 Z " fill="#7D56C2" transform="translate(114.5,393.625)"/>
<path d="M0 0 C7.85856416 1.57171283 12.41788442 5.67424752 17 12 C20.99892935 18.53158461 20.74806733 25.51082595 20 33 C18.37242959 39.59747291 14.5501755 45.07380012 9 49 C6.03 50.32 3.06 51.64 0 53 C0 35.51 0 18.02 0 0 Z " fill="#7D57C2" transform="translate(333,150)"/>
<path d="M0 0 C0 17.49 0 34.98 0 53 C-9.361554 48.83930933 -15.53250101 45.33893221 -19.3359375 35.6484375 C-21.45874717 27.18217304 -21.02646896 18.79630815 -16.62890625 11.19140625 C-12.6625722 5.85540289 -7.00139112 0 0 0 Z " fill="#7D57C2" transform="translate(179,150)"/>
</svg>
